name Walk10.mot
datacolumns 19
datarows 25
range 1.36000000 1.48000000
endheader

                time	   L_ground_force_vx	   L_ground_force_vy	   L_ground_force_vz	   L_ground_force_px	   L_ground_force_py	   L_ground_force_pz	   R_ground_force_vx	   R_ground_force_vy	   R_ground_force_vz	   R_ground_force_px	   R_ground_force_py	   R_ground_force_pz	   L_ground_torque_x	   L_ground_torque_y	   L_ground_torque_z	   R_ground_torque_x	   R_ground_torque_y	   R_ground_torque_z	
          1.36000000	         -2.75228473	         58.67757661	         -5.69587646	          0.00368115	          0.00000000	         -0.00199447	         -0.00000000	          0.00000000	         -0.00000000	          0.00000000	          0.00000000	          0.00000000	          0.00000000	          0.09777054	          0.00000000	          0.00000000	          0.00000000	          0.00000000	
          1.36500000	         -5.44516118	         85.15739808	         -7.37847014	         -0.09118801	          0.00000000	         -0.01641681	         -0.00000000	          0.00000000	         -0.00000000	          0.00000000	          0.00000000	          0.00000000	          0.00000000	          0.14736195	          0.00000000	          0.00000000	          0.00000000	          0.00000000	
          1.37000000	         -8.75748320	        115.17419531	         -9.03928413	         -0.17973962	          0.00000000	         -0.03017638	         -0.00000000	          0.00000000	         -0.00000000	         -0.00000000	          0.00000000	         -0.00000000	          0.00000000	          0.20752372	          0.00000000	          0.00000000	          0.00000000	          0.00000000	
          1.37500000	        -12.68548487	        147.27230294	        -10.47694331	         -0.25714723	          0.00000000	         -0.04256394	         -0.00000000	         -0.00000000	         -0.00000000	         -0.00000000	          0.00000000	         -0.00000000	          0.00000000	          0.27670356	          0.00000000	          0.00000000	          0.00000000	          0.00000000	
          1.38000000	        -17.23330479	        179.76066205	        -11.44177324	         -0.32100018	          0.00000000	         -0.05321260	         -0.00000000	         -0.00000001	         -0.00000000	         -0.00000000	          0.00000000	         -0.00000000	          0.00000000	          0.35214035	          0.00000000	          0.00000000	          0.00000000	          0.00000000	
          1.38500000	        -22.41465928	        211.61081663	        -11.68967454	         -0.37082271	          0.00000000	         -0.06202982	         -0.00000000	         -0.00000001	         -0.00000000	         -0.00000000	          0.00000000	         -0.00000000	          0.00000000	          0.42978688	          0.00000000	          0.00000000	          0.00000000	          0.00000000	
          1.39000000	        -28.19701527	        242.56226107	        -11.04627401	         -0.40743020	          0.00000000	         -0.06909194	          0.00000000	         -0.00000002	         -0.00000000	         -0.00000000	          0.00000000	         -0.00000000	          0.00000000	          0.50382431	          0.00000000	          0.00000000	          0.00000000	          0.00000000	
          1.39500000	        -34.46139159	        272.54351293	         -9.44192858	         -0.43242012	          0.00000000	         -0.07456175	          0.00000000	         -0.00000002	         -0.00000000	         -0.00000000	          0.00000000	         -0.00000000	          0.00000000	          0.56647346	          0.00000000	          0.00000000	         -0.00000000	          0.00000000	
          1.40000000	        -40.99137261	        301.37658027	         -6.93952211	         -0.44777178	          0.00000000	         -0.07863845	          0.00000000	         -0.00000003	         -0.00000000	         -0.00000000	          0.00000000	         -0.00000000	          0.00000000	          0.60995288	          0.00000000	          0.00000000	         -0.00000000	          0.00000000	
          1.40500000	        -47.50679790	        328.87840943	         -3.73966194	         -0.45553706	          0.00000000	         -0.08153825	          0.00000000	         -0.00000004	         -0.00000000	         -0.00000000	          0.00000000	         -0.00000000	          0.00000000	          0.63009379	          0.00000000	          0.00000000	         -0.00000000	          0.00000000	
          1.41000000	        -53.73186432	        354.99884787	         -0.10638548	         -0.45764584	          0.00000000	         -0.08347801	          0.00000000	         -0.00000006	         -0.00000000	         -0.00000000	          0.00000000	         -0.00000000	          0.00000000	          0.62884730	          0.00000000	          0.00000000	         -0.00000000	          0.00000000	
          1.41500000	        -59.46967980	        379.82014175	          3.71042117	         -0.45579851	          0.00000000	         -0.08466271	          0.00000001	         -0.00000007	         -0.00000000	         -0.00000000	          0.00000000	         -0.00000000	          0.00000000	          0.61437737	          0.00000000	          0.00000000	         -0.00000000	          0.00000000	
          1.42000000	        -64.64667098	        403.50112306	          7.49233067	         -0.45141161	          0.00000000	         -0.08527506	          0.00000001	         -0.00000007	         -0.00000000	         -0.00000000	          0.00000000	         -0.00000000	          0.00000000	          0.59917959	          0.00000000	          0.00000000	         -0.00000000	          0.00000000	
          1.42500000	        -69.29420459	        426.22836768	         11.05935162	         -0.44560493	          0.00000000	         -0.08547074	          0.00000001	         -0.00000008	         -0.00000000	         -0.00000000	          0.00000000	         -0.00000000	          0.00000000	          0.59628205	          0.00000000	          0.00000000	         -0.00000000	          0.00000000	
          1.43000000	        -73.48488273	        448.18783312	         14.29113526	         -0.43922017	          0.00000000	         -0.08537824	          0.00000001	         -0.00000007	          0.00000000	         -0.00000000	          0.00000000	         -0.00000000	          0.00000000	          0.61453098	          0.00000000	          0.00000000	         -0.00000000	          0.00000000	
          1.43500000	        -77.26700286	        469.55655619	         17.13723188	         -0.43285635	          0.00000000	         -0.08509982	          0.00000001	         -0.00000005	          0.00000000	         -0.00000000	          0.00000000	         -0.00000000	          0.00000000	          0.65582960	          0.00000000	          0.00000000	         -0.00000000	          0.00000000	
          1.44000000	        -80.63580245	        490.47580655	         19.59677085	         -0.42691326	          0.00000000	         -0.08471233	          0.00000002	         -0.00000002	          0.00000001	          0.00000000	          0.00000000	          0.00000000	          0.00000000	          0.71646765	          0.00000000	          0.00000000	         -0.00000000	          0.00000000	
          1.44500000	        -83.54102136	        510.99559603	         21.68751155	         -0.42163317	          0.00000000	         -0.08427123	          0.00000002	          0.00000003	          0.00000001	          0.00000000	          0.00000000	          0.00000000	          0.00000000	          0.79060231	          0.00000000	          0.00000000	         -0.00000000	          0.00000000	
          1.45000000	        -85.91112498	        531.04785995	         23.42921475	         -0.41713594	          0.00000000	         -0.08381594	          0.00000001	          0.00000011	          0.00000002	          0.00000000	          0.00000000	          0.00000000	          0.00000000	          0.87284895	          0.00000000	          0.00000000	         -0.00000000	          0.00000000	
          1.45500000	        -87.68090810	        550.47404238	         24.84468714	         -0.41344810	          0.00000000	         -0.08337444	          0.00000001	          0.00000022	          0.00000002	          0.00000000	          0.00000000	          0.00000000	          0.00000000	          0.95921555	          0.00000000	          0.00000000	         -0.00000000	          0.00000000	
          1.46000000	        -88.81425647	        569.06798613	         25.96863511	         -0.41053038	          0.00000000	         -0.08296599	          0.00000000	          0.00000037	          0.00000003	          0.00000000	          0.00000000	          0.00000000	          0.00000000	          1.04621200	          0.00000000	          0.00000000	         -0.00000000	          0.00000000	
          1.46500000	        -89.31252566	        586.59999036	         26.85003971	         -0.40830153	          0.00000000	         -0.08260459	         -0.00000001	          0.00000055	          0.00000004	          0.00000000	          0.00000000	          0.00000000	          0.00000000	          1.13006189	          0.00000000	          0.00000000	          0.00000000	          0.00000000	
          1.47000000	        -89.20609066	        602.83177360	         27.54474923	         -0.40665515	          0.00000000	         -0.08229979	         -0.00000003	          0.00000076	          0.00000004	          0.00000000	          0.00000000	          0.00000000	          0.00000000	          1.20700182	          0.00000000	          0.00000000	          0.00000000	          0.00000000	
          1.47500000	        -88.54300610	        617.53616807	         28.10748535	         -0.40547315	          0.00000000	         -0.08205628	         -0.00000006	          0.00000100	          0.00000005	          0.00000000	          0.00000000	          0.00000000	          0.00000000	          1.27365867	          0.00000000	          0.00000000	          0.00000000	          0.00000000	
          1.48000000	        -87.38621362	        630.52219973	         28.58899387	         -0.40463711	          0.00000000	         -0.08187574	         -0.00000009	          0.00000125	          0.00000005	          0.00000000	          0.00000000	          0.00000000	          0.00000000	          1.32726276	          0.00000000	          0.00000000	          0.00000000	          0.00000000	
